<?xml version="1.0" encoding="iso-8859-1"?>
<!-- Uploaded to: SVG Repo, www.svgrepo.com, Generator: SVG Repo Mixer Tools -->
<svg fill="white" height="800px" width="800px" version="1.1" id="Layer_1" xmlns="http://www.w3.org/2000/svg" xmlns:xlink="http://www.w3.org/1999/xlink" 
	 viewBox="0 0 512 512" xml:space="preserve">
<g>
	<g>
		<path d="M434.863,126.093V77.137h-48.956V0h-33.391v77.137h-42.083V0h-33.391v77.137h-42.083V0h-33.391v77.137h-42.083V0h-33.391
			v77.137H77.137v48.956H0v33.391h77.137v42.083H0v33.391h77.137v42.083H0v33.391h77.137v42.083H0v33.391h77.137v48.956h48.956V512
			h33.391v-77.137h42.083V512h33.391v-77.137h42.083V512h33.391v-77.137h42.083V512h33.391v-77.137h48.956v-48.956H512v-33.391
			h-77.137v-42.083H512v-33.391h-77.137v-42.083H512v-33.391h-77.137v-42.083H512v-33.39H434.863z M401.473,401.471h-0.001H110.529
			V110.529h290.944V401.471z"/>
	</g>
</g>
<g>
	<g>
		<path d="M375.773,229.532c0-22.913-14.194-42.903-34.426-51.239c-1.374-26.935-23.718-48.426-50.987-48.426
			c-13.221,0-25.283,5.052-34.36,13.325c-9.077-8.273-21.139-13.325-34.36-13.325c-27.27,0-49.615,21.491-50.987,48.426
			c-20.234,8.336-34.426,28.326-34.426,51.239c0,9.577,2.445,18.593,6.742,26.459c-4.391,8.051-6.742,17.113-6.742,26.478
			c-0.001,23.125,14.25,42.974,34.428,51.253c1.381,26.928,23.722,48.411,50.986,48.411c13.221,0,25.283-5.052,34.36-13.325
			c9.077,8.273,21.139,13.325,34.36,13.325c27.265,0,49.606-21.483,50.986-48.411c20.176-8.28,34.428-28.129,34.428-51.253
			c0-9.366-2.351-18.428-6.742-26.478C373.328,248.124,375.773,239.108,375.773,229.532z M239.304,331.078
			c0,9.74-7.924,17.664-17.664,17.664c-7.943,0-14.674-5.271-16.889-12.497c10.656-2.612,20.43-8.341,27.914-16.604l-24.749-22.417
			c-4.226,4.667-10.018,7.237-16.308,7.237c-12.127,0-21.992-9.866-21.992-21.992c0-0.697,0.033-1.389,0.098-2.076
			c6.719,2.904,14.12,4.521,21.895,4.521v-33.391c-12.127,0-21.992-9.866-21.992-21.993c-0.001-7.907,4.25-14.938,10.63-18.817
			c5.774,8.031,13.85,14.415,23.463,18.021l11.727-31.264c-6.855-2.571-11.461-9.222-11.461-16.549
			c0-9.74,7.924-17.664,17.664-17.664c9.74,0,17.664,7.924,17.664,17.664V331.078z M342.285,280.393
			c0.065,0.687,0.098,1.379,0.098,2.076c0,12.127-9.866,21.992-21.993,21.992c-6.289,0-12.081-2.57-16.307-7.237l-24.748,22.417
			c7.485,8.263,17.258,13.993,27.914,16.604c-2.215,7.227-8.947,12.497-16.889,12.497c-9.74,0-17.664-7.924-17.664-17.664V180.922
			c0-9.74,7.924-17.664,17.664-17.664c9.739,0,17.664,7.924,17.664,17.664c0,7.327-4.606,13.978-11.461,16.549l11.727,31.264
			c9.613-3.606,17.688-9.991,23.463-18.021c6.38,3.879,10.631,10.911,10.631,18.817c0,12.127-9.866,21.993-21.993,21.993v33.391
			C328.164,284.915,335.566,283.297,342.285,280.393z"/>
	</g>
</g>
</svg>